PathFileType	4	(X/Y/Z)	HSS_walk2.trc
DataRate	CameraRate	NumFrames	NumMarkers	Units	OrigDataRate	OrigDataStartFrame	OrigNumFrames
120.0	120.0	7	44	mm	120.0	739	984
Frame#	Time		R.Shoulder		Offset		L.Shoulder		R.Elbow		R.Wrist.Radial		R.Wrist		R.Hand		L.Elbow		L.Wrist.Radial		L.Wrist		L.Hand		R.Hip		V.Sacral		L.PSIS		L.Hip		R.Thigh.Upper		R.Thigh.Front		R.Thigh.Rear		X.Shell.Lower.Thigh.Right		R.Knee.Lateral		R.Shank.Upper		R.Shank.Front		R.Shank.Rear		X.Shell.Lower.Shank.Right		R.Ankle.Lateral		R.Heel		R.Toe		L.Thigh.Upper		L.Thigh.Front		L.Thigh.Rear		X.Shell.Lower.Thigh.Left		L.Knee.Lateral		L.Shank.Upper		L.Shank.Front		L.Shank.Rear		X.Shell.Lower.Shank.Left		L.Ankle.Lateral		L.Heel		L.Toe		R.Troc		L.Troc		R.PSIS		L.ASIS		R.ASIS
			X1	Y1	Z1	X2	Y2	Z2	X3	Y3	Z3	X4	Y4	Z4	X5	Y5	Z5	X6	Y6	Z6	X7	Y7	Z7	X8	Y8	Z8	X9	Y9	Z9	X10	Y10	Z10	X11	Y11	Z11	X12	Y12	Z12	X13	Y13	Z13	X14	Y14	Z14	X15	Y15	Z15	X16	Y16	Z16	X17	Y17	Z17	X18	Y18	Z18	X19	Y19	Z19	X20	Y20	Z20	X21	Y21	Z21	X22	Y22	Z22	X23	Y23	Z23	X24	Y24	Z24	X25	Y25	Z25	X26	Y26	Z26	X27	Y27	Z27	X28	Y28	Z28	X29	Y29	Z29	X30	Y30	Z30	X31	Y31	Z31	X32	Y32	Z32	X33	Y33	Z33	X34	Y34	Z34	X35	Y35	Z35	X36	Y36	Z36	X37	Y37	Z37	X38	Y38	Z38	X39	Y39	Z39	X40	Y40	Z40	X41	Y41	Z41	X42	Y42	Z42	X43	Y43	Z43	X44	Y44	Z44

739	6.15000	1273.64453	1433.58484	-22.43835	1183.21033	1357.88538	-314.11505	1308.38037	1460.50867	-384.52246	1150.04199	1096.27649	-7.47910	1177.90625	844.04333	25.90475	1128.93896	861.27496	78.83702	1135.38306	773.20679	81.26586	1388.25745	1098.58655	-462.60715	1624.98901	1019.79474	-468.28015	1644.47705	1057.38770	-410.10556	1709.65222	1016.37152	-454.50467	1328.15784	1003.75708	-66.41058	1207.25476	979.33264	-207.99577	1208.29285	984.05603	-250.48424	1324.35327	992.49603	-363.64490	1473.50415	689.86255	-37.29900	1515.85583	666.99152	-58.64668	1465.78479	645.66833	-29.22865	1500.72876	624.70575	-51.29926	1482.04688	507.72263	-68.43587	1508.38623	360.73956	-29.39152	1543.11475	325.19287	-56.48444	1484.41882	318.87070	-41.90639	1514.16052	284.83072	-54.10025	1540.17993	67.95717	-108.13911	1495.88794	34.33227	-156.91135	1694.21423	35.82328	-114.83427	1331.98999	644.64258	-360.98477	1345.24500	594.71393	-335.49298	1296.46094	612.54077	-371.29816	1317.47253	575.45874	-357.23297	1228.46094	470.44022	-335.15506	1093.13440	313.73663	-370.21515	1100.59314	279.95486	-349.07370	1044.90173	300.56470	-359.16901	1046.10852	262.16376	-357.65778	954.79688	125.28408	-305.92386	885.30878	124.32964	-261.32800	1058.87292	31.77799	-282.90784	1374.79773	863.34113	-30.54088	1317.66797	848.79327	-395.89670	1208.23108	986.36859	-165.06870	1389.63342	956.75421	-325.45282	1391.72949	971.82233	-102.00512
740	6.15833	1284.95447	1434.24194	-20.69927	1194.62781	1359.21265	-312.85660	1319.97034	1461.99500	-383.24750	1163.70801	1096.04309	-6.58584	1192.39233	843.95441	26.65734	1143.62085	861.14972	79.86894	1150.04675	773.00183	82.07555	1395.73328	1098.69238	-460.44406	1631.32581	1016.48627	-467.03494	1651.68311	1054.29211	-409.28180	1715.92529	1012.35480	-453.84186	1339.30957	1005.96606	-65.52950	1219.24402	981.16101	-208.21736	1220.39563	985.42883	-250.54550	1337.91638	993.10187	-362.86636	1484.74182	691.61719	-35.37741	1526.86902	668.53992	-56.70137	1476.87036	647.61340	-26.80470	1511.92285	626.71472	-48.83442	1493.32715	509.74387	-68.71938	1518.45862	362.46436	-29.96123	1550.84631	325.86929	-58.42222	1493.04517	320.97693	-40.22411	1521.52039	286.18402	-53.84035	1540.87561	68.66139	-108.63668	1496.15051	34.46531	-157.03487	1694.93103	35.29935	-115.89712	1346.98315	644.67767	-360.24881	1360.90137	595.01233	-335.01056	1311.82007	612.34113	-370.69180	1333.14404	575.30707	-356.82626	1244.81592	470.38449	-336.55020	1104.50476	317.73566	-370.27563	1111.58069	283.48611	-349.80219	1056.40820	305.81125	-358.46503	1056.54590	267.40607	-357.43753	961.77429	132.62546	-306.56931	893.76672	134.76245	-260.84451	1059.79224	31.83007	-283.16174	1385.74548	865.71063	-29.18089	1331.32471	848.78430	-394.12280	1219.79932	988.63623	-165.31174	1402.26672	957.58472	-323.98044	1402.98022	974.07269	-100.73539
741	6.16667	1296.03638	1435.23633	-19.23399	1205.99219	1360.74744	-311.54688	1331.65051	1463.67236	-381.93790	1177.63196	1095.94116	-5.69838	1207.42566	844.07794	27.47660	1158.83411	861.05157	80.90288	1165.38708	772.93042	82.92123	1402.80359	1099.16553	-458.21603	1636.87488	1012.86243	-466.01697	1658.19250	1050.51990	-408.46710	1721.53210	1007.72766	-453.46198	1350.05554	1008.61664	-64.65176	1231.03259	983.08301	-208.38045	1232.49341	986.78522	-251.03561	1351.33667	994.27618	-361.80350	1496.20935	693.66351	-34.00216	1538.36523	670.69354	-55.51694	1488.20166	649.48816	-25.43733	1523.28613	628.65790	-47.70789	1504.16113	511.95441	-68.48880	1527.18945	364.13141	-29.98087	1558.15833	326.64981	-58.94173	1500.82166	322.83670	-39.20864	1528.44275	287.46594	-53.08043	1541.63477	68.90937	-108.94048	1496.38184	34.56457	-157.16695	1695.60632	34.83149	-116.79778	1362.30298	645.40729	-359.51373	1377.09717	595.36298	-334.65918	1327.64453	612.46051	-370.24677	1349.82922	575.78326	-356.95422	1262.12769	470.42941	-337.31857	1116.91052	322.48306	-370.26196	1123.08167	287.72641	-350.64771	1068.64282	311.71503	-357.59698	1067.85364	273.35217	-357.38901	970.06122	140.32532	-307.32242	904.15955	145.53961	-259.75357	1060.46094	31.76633	-283.10010	1396.46252	868.02692	-27.98252	1345.11133	848.64667	-392.38077	1231.31750	990.88477	-165.52220	1414.73022	958.47064	-322.46985	1414.07874	976.53400	-99.47025
742	6.17500	1306.81287	1436.38025	-17.78271	1217.32617	1362.51636	-310.84879	1343.12964	1465.52173	-380.72083	1191.75586	1096.09595	-4.69632	1223.04272	844.45355	28.32641	1174.45410	861.14276	81.95118	1181.28027	773.04901	83.76478	1409.62305	1099.86072	-456.01242	1641.82056	1009.05078	-464.65219	1664.31201	1046.62378	-407.57111	1726.39392	1002.43213	-453.05502	1360.58704	1011.06335	-63.94326	1242.45703	984.97229	-208.24672	1244.33215	988.48267	-251.02266	1364.01685	995.70642	-360.67990	1507.28210	695.70294	-33.57005	1549.47681	672.74231	-55.25341	1499.45337	651.43866	-25.41705	1534.39282	630.81073	-47.85983	1514.15405	513.29230	-68.19978	1534.98706	364.27158	-28.88044	1564.47424	326.60269	-58.91082	1507.43262	323.70663	-38.01759	1534.06702	287.93063	-52.62887	1542.24097	69.17190	-109.20346	1496.53650	34.72902	-157.27179	1695.91687	34.52381	-116.37744	1377.85291	646.33356	-359.14709	1393.61121	596.22034	-334.90417	1343.85852	612.84253	-370.26630	1366.66028	576.37970	-357.49554	1279.80078	470.62585	-338.55188	1129.51990	328.01657	-370.81253	1135.66138	292.58609	-351.94003	1081.30811	318.59818	-356.66998	1079.79456	279.80621	-357.03485	979.60516	148.29607	-307.69199	916.59821	156.48943	-258.17288	1061.45129	31.69869	-283.42566	1406.65771	870.11511	-26.72972	1359.12195	848.86481	-390.36105	1242.73816	993.17505	-165.52490	1426.93079	959.80121	-320.70700	1424.87207	979.13782	-97.96644
743	6.18333	1317.99768	1437.89368	-16.37199	1228.44568	1364.63708	-310.10074	1354.67883	1467.62805	-379.40359	1206.01343	1096.54871	-3.75519	1239.26660	845.10162	29.12597	1190.78955	861.42712	83.00423	1198.18176	773.36536	84.50285	1416.19019	1100.93518	-453.79425	1646.30115	1004.88208	-463.63358	1669.94604	1042.15076	-406.56473	1730.63660	996.64215	-452.60895	1371.13281	1013.55023	-62.91454	1254.23157	986.75610	-208.11794	1256.05750	990.19971	-251.06386	1376.55823	997.31470	-359.60925	1517.66821	697.28485	-33.51920	1559.75830	674.61371	-55.12377	1509.59546	652.91687	-26.06544	1544.77185	632.60974	-48.24186	1523.20081	513.93494	-67.82443	1541.27600	363.90924	-27.98961	1569.71008	325.80698	-58.32365	1512.76880	323.99860	-37.10147	1538.45508	287.97791	-52.47453	1542.25671	69.33084	-109.26845	1496.51355	34.79810	-157.16843	1696.09253	34.17648	-116.17004	1393.58093	647.38593	-359.10358	1410.57715	597.17932	-335.51773	1360.42603	613.26190	-370.60541	1384.17322	577.27594	-358.35178	1298.49463	471.21201	-340.00751	1143.26538	334.06363	-370.51300	1149.05676	297.84540	-353.49484	1095.50012	325.32779	-354.90820	1092.72327	286.80200	-356.54749	990.68152	156.05930	-308.57520	931.31366	167.15414	-256.09991	1062.70935	31.81467	-283.37323	1417.11768	871.94855	-25.88717	1372.67407	849.35736	-388.37091	1254.11987	995.20013	-165.08034	1438.96729	961.19989	-318.75262	1435.33289	981.35394	-96.36944
744	6.19167	1328.97974	1439.44873	-15.10123	1239.52124	1366.82068	-309.72751	1366.21509	1469.82227	-378.12918	1220.36511	1096.98401	-2.91521	1256.17322	845.87341	29.89895	1207.63574	861.79248	83.89317	1215.59729	773.70361	85.25401	1422.60474	1102.12939	-451.54239	1650.12500	1000.50726	-462.59415	1674.93408	1037.24768	-405.75491	1734.49207	990.52686	-452.07666	1381.86987	1015.98798	-61.84962	1265.50513	988.53125	-207.74344	1267.12915	991.92194	-250.72856	1388.67590	998.88904	-358.20453	1526.78223	698.40582	-33.53341	1569.25342	675.90735	-54.97862	1518.93042	654.14258	-26.02338	1554.18054	633.97272	-48.38277	1530.18127	514.31458	-67.27459	1546.03406	363.89432	-27.36548	1573.94653	325.14368	-57.56132	1516.76746	324.35059	-36.69260	1542.01660	287.73151	-51.59943	1542.42981	69.40868	-109.29379	1496.43774	34.81501	-157.04910	1696.24634	34.03258	-116.48434	1409.61353	648.35675	-359.29160	1427.96826	598.31995	-337.32962	1377.27222	613.83972	-371.17059	1401.54602	577.95282	-359.41934	1317.60901	471.70074	-341.50253	1157.43665	340.31287	-370.71616	1163.37500	303.09863	-354.86008	1110.67383	331.93655	-352.62479	1106.70984	293.65906	-355.80414	1003.87811	163.03714	-308.90274	947.37610	177.19650	-254.68547	1064.73364	31.90373	-283.46964	1427.19421	873.82178	-24.91418	1385.63574	850.17035	-386.35385	1265.31433	997.08862	-164.48610	1450.66797	962.71649	-316.86853	1445.70886	983.63397	-95.13029
745	6.20000	1339.86670	1441.21973	-13.94078	1250.48572	1368.89978	-309.07773	1377.42834	1472.05493	-376.67984	1234.86389	1097.40625	-1.97151	1273.75989	846.93329	31.01774	1224.97339	862.24359	84.94509	1233.76196	774.11652	86.05544	1428.68042	1103.68774	-449.55151	1653.52380	996.00800	-461.40714	1679.24536	1032.10083	-404.75574	1737.42749	983.71631	-451.70609	1392.40771	1018.18884	-60.96344	1276.72302	990.41675	-206.90933	1278.21082	993.63428	-249.82133	1400.17432	1000.79486	-357.29752	1535.50256	699.31799	-33.04134	1577.88647	676.46039	-54.19833	1527.06567	654.76599	-25.45650	1562.37207	634.39581	-47.56411	1537.05823	514.49707	-66.39120	1550.09045	363.59149	-26.82669	1577.76660	324.42215	-56.64513	1520.27148	324.56796	-36.38692	1545.19873	287.57587	-51.14087	1542.64185	69.40858	-109.28678	1496.35864	34.83013	-156.92819	1696.33521	33.90236	-116.51053	1425.67871	649.29059	-359.94415	1444.82446	599.33661	-337.79788	1393.92480	614.36243	-372.02478	1418.97534	578.91339	-360.71637	1336.93494	471.83328	-342.91937	1173.53357	345.97327	-369.53485	1178.63269	308.17346	-356.22360	1126.98718	338.14151	-350.36792	1121.89050	300.18997	-355.16559	1018.67584	168.96986	-308.63815	963.61682	187.36015	-254.61703	1068.12341	33.08570	-282.60464	1437.43079	875.19501	-24.15775	1398.18030	851.12256	-384.51282	1276.33850	998.85022	-163.28868	1461.90808	964.13062	-315.40704	1456.17419	985.74609	-93.60379
